<?xml version="1.0" encoding="UTF-8"?>
<svg width="24px" height="24px" viewBox="0 0 24 24" version="1.1" xmlns="http://www.w3.org/2000/svg" xmlns:xlink="http://www.w3.org/1999/xlink">
    <!-- Generator: Sketch 64 (93537) - https://sketch.com -->
    <title>Icons / Navigation / Close</title>
    <desc>Created with Sketch.</desc>
    <defs>
        <path d="M4.30845886,4.30846938 C4.71973707,3.89719117 5.38656133,3.8971816 5.79783954,4.30845981 L5.79783954,4.30845981 L12.5,11.011 L19.202158,4.30845955 C19.5817994,3.92881813 20.1791761,3.89961308 20.5923152,4.22084784 L20.6915291,4.30845737 C21.1028073,4.71973558 21.1028218,5.38656063 20.6915436,5.79783884 L20.6915436,5.79783884 L13.989,12.5 L20.6915411,19.2021614 C21.0711826,19.5818029 21.1003857,20.1791779 20.7791507,20.5923167 L20.6915411,20.6915306 C20.2802629,21.1028088 19.6134387,21.1028184 19.2021604,20.6915402 L19.2021604,20.6915402 L12.5,13.989 L5.79784199,20.6915404 C5.41820052,21.0711819 4.8208239,21.1003869 4.40768475,20.7791521 L4.30847087,20.6915426 C3.89719266,20.2802644 3.89717816,19.6134394 4.30845641,19.2021611 L4.30845641,19.2021611 L11.011,12.5 L4.30845886,5.79783858 C3.92881743,5.41819716 3.89961424,4.82082213 4.2208493,4.40768323 Z" id="path-1"></path>
    </defs>
    <g id="Icons-/-Navigation-/-Close" stroke="none" stroke-width="1" fill="none" fill-rule="evenodd">
        <mask id="mask-2" fill="white">
            <use xlink:href="#path-1"></use>
        </mask>
        <use id="Combined-Shape" fill="currentColor" fill-rule="nonzero" xlink:href="#path-1"></use>
    </g>
</svg>
