<svg width="52" height="36" viewBox="0 0 52 36" fill="none" xmlns="http://www.w3.org/2000/svg">
<rect x="0.5" y="0.5" width="51" height="35" stroke="currentColor"/>
<path d="M10.2422 30.4883C10.5 30.4883 10.7253 30.4102 10.918 30.2539C11.1107 30.0977 11.2174 29.9023 11.2383 29.668H11.9219C11.9089 29.9102 11.8255 30.1406 11.6719 30.3594C11.5182 30.5781 11.3125 30.7526 11.0547 30.8828C10.7995 31.013 10.5286 31.0781 10.2422 31.0781C9.66667 31.0781 9.20833 30.8867 8.86719 30.5039C8.52865 30.1185 8.35938 29.5924 8.35938 28.9258V28.8047C8.35938 28.3932 8.4349 28.0273 8.58594 27.707C8.73698 27.3867 8.95312 27.138 9.23438 26.9609C9.51823 26.7839 9.85286 26.6953 10.2383 26.6953C10.7122 26.6953 11.1055 26.8372 11.418 27.1211C11.7331 27.4049 11.901 27.7734 11.9219 28.2266H11.2383C11.2174 27.9531 11.1133 27.7292 10.9258 27.5547C10.7409 27.3776 10.5117 27.2891 10.2383 27.2891C9.87109 27.2891 9.58594 27.4219 9.38281 27.6875C9.18229 27.9505 9.08203 28.332 9.08203 28.832V28.9688C9.08203 29.4557 9.18229 29.8307 9.38281 30.0938C9.58333 30.3568 9.86979 30.4883 10.2422 30.4883ZM12.543 28.8477C12.543 28.4336 12.6237 28.0612 12.7852 27.7305C12.9492 27.3997 13.1758 27.1445 13.4648 26.9648C13.7565 26.7852 14.0885 26.6953 14.4609 26.6953C15.0365 26.6953 15.5013 26.8945 15.8555 27.293C16.2122 27.6914 16.3906 28.2214 16.3906 28.8828V28.9336C16.3906 29.3451 16.3112 29.7148 16.1523 30.043C15.9961 30.3685 15.7708 30.6224 15.4766 30.8047C15.1849 30.987 14.849 31.0781 14.4688 31.0781C13.8958 31.0781 13.431 30.8789 13.0742 30.4805C12.7201 30.082 12.543 29.5547 12.543 28.8984V28.8477ZM13.2695 28.9336C13.2695 29.4023 13.3776 29.7786 13.5938 30.0625C13.8125 30.3464 14.1042 30.4883 14.4688 30.4883C14.8359 30.4883 15.1276 30.3451 15.3438 30.0586C15.5599 29.7695 15.668 29.3659 15.668 28.8477C15.668 28.3841 15.5573 28.0091 15.3359 27.7227C15.1172 27.4336 14.8255 27.2891 14.4609 27.2891C14.1042 27.2891 13.8164 27.431 13.5977 27.7148C13.3789 27.9987 13.2695 28.4049 13.2695 28.9336ZM17.9766 26.7734L17.9961 27.2422C18.306 26.8776 18.724 26.6953 19.25 26.6953C19.8411 26.6953 20.2435 26.9219 20.457 27.375C20.5977 27.1719 20.7799 27.0078 21.0039 26.8828C21.2305 26.7578 21.4974 26.6953 21.8047 26.6953C22.7318 26.6953 23.2031 27.1862 23.2188 28.168V31H22.4961V28.2109C22.4961 27.9089 22.4271 27.6836 22.2891 27.5352C22.151 27.3841 21.9193 27.3086 21.5938 27.3086C21.3255 27.3086 21.1029 27.3893 20.9258 27.5508C20.7487 27.7096 20.6458 27.9245 20.6172 28.1953V31H19.8906V28.2305C19.8906 27.6159 19.5898 27.3086 18.9883 27.3086C18.5143 27.3086 18.1901 27.5104 18.0156 27.9141V31H17.293V26.7734H17.9766ZM24.9922 26.7734L25.0117 27.2422C25.3216 26.8776 25.7396 26.6953 26.2656 26.6953C26.8568 26.6953 27.2591 26.9219 27.4727 27.375C27.6133 27.1719 27.7956 27.0078 28.0195 26.8828C28.2461 26.7578 28.513 26.6953 28.8203 26.6953C29.7474 26.6953 30.2188 27.1862 30.2344 28.168V31H29.5117V28.2109C29.5117 27.9089 29.4427 27.6836 29.3047 27.5352C29.1667 27.3841 28.9349 27.3086 28.6094 27.3086C28.3411 27.3086 28.1185 27.3893 27.9414 27.5508C27.7643 27.7096 27.6615 27.9245 27.6328 28.1953V31H26.9062V28.2305C26.9062 27.6159 26.6055 27.3086 26.0039 27.3086C25.5299 27.3086 25.2057 27.5104 25.0312 27.9141V31H24.3086V26.7734H24.9922ZM33.9375 31C33.8958 30.9167 33.862 30.7682 33.8359 30.5547C33.5 30.9036 33.099 31.0781 32.6328 31.0781C32.2161 31.0781 31.8737 30.9609 31.6055 30.7266C31.3398 30.4896 31.207 30.1901 31.207 29.8281C31.207 29.388 31.3737 29.0469 31.707 28.8047C32.043 28.5599 32.5143 28.4375 33.1211 28.4375H33.8242V28.1055C33.8242 27.8529 33.7487 27.6523 33.5977 27.5039C33.4466 27.3529 33.224 27.2773 32.9297 27.2773C32.6719 27.2773 32.4557 27.3424 32.2812 27.4727C32.1068 27.6029 32.0195 27.7604 32.0195 27.9453H31.293C31.293 27.7344 31.3672 27.5312 31.5156 27.3359C31.6667 27.138 31.8698 26.9818 32.125 26.8672C32.3828 26.7526 32.6654 26.6953 32.9727 26.6953C33.4596 26.6953 33.8411 26.8177 34.1172 27.0625C34.3932 27.3047 34.5365 27.6393 34.5469 28.0664V30.0117C34.5469 30.3997 34.5964 30.7083 34.6953 30.9375V31H33.9375ZM32.7383 30.4492C32.9648 30.4492 33.1797 30.3906 33.3828 30.2734C33.5859 30.1562 33.7331 30.0039 33.8242 29.8164V28.9492H33.2578C32.3724 28.9492 31.9297 29.2083 31.9297 29.7266C31.9297 29.9531 32.0052 30.1302 32.1562 30.2578C32.3073 30.3854 32.5013 30.4492 32.7383 30.4492ZM36.3633 26.7734L36.3867 27.3047C36.7096 26.8984 37.1315 26.6953 37.6523 26.6953C38.5456 26.6953 38.9961 27.1992 39.0039 28.207V31H38.2812V28.2031C38.2786 27.8984 38.2083 27.6732 38.0703 27.5273C37.9349 27.3815 37.7227 27.3086 37.4336 27.3086C37.1992 27.3086 36.9935 27.3711 36.8164 27.4961C36.6393 27.6211 36.5013 27.7852 36.4023 27.9883V31H35.6797V26.7734H36.3633ZM39.918 28.8516C39.918 28.2031 40.0716 27.6823 40.3789 27.2891C40.6862 26.8932 41.0885 26.6953 41.5859 26.6953C42.0807 26.6953 42.4727 26.8646 42.7617 27.2031V25H43.4844V31H42.8203L42.7852 30.5469C42.4961 30.901 42.0938 31.0781 41.5781 31.0781C41.0885 31.0781 40.6888 30.8776 40.3789 30.4766C40.0716 30.0755 39.918 29.5521 39.918 28.9062V28.8516ZM40.6406 28.9336C40.6406 29.4128 40.7396 29.7878 40.9375 30.0586C41.1354 30.3294 41.4089 30.4648 41.7578 30.4648C42.2161 30.4648 42.5508 30.2591 42.7617 29.8477V27.9062C42.5456 27.5078 42.2135 27.3086 41.7656 27.3086C41.4115 27.3086 41.1354 27.4453 40.9375 27.7188C40.7396 27.9922 40.6406 28.3971 40.6406 28.9336Z" fill="currentColor"/>
</svg>
