<svg width="100" height="100" viewBox="0 0 100 100" fill="none" xmlns="http://www.w3.org/2000/svg">
<path d="M82.2377 81.024C81.4287 81.024 80.7729 81.6799 80.7729 82.4889V96.2611C80.7729 96.707 80.41 97.0699 79.9641 97.0699H72.0897V68.2228C72.0897 67.4139 71.4338 66.758 70.6248 66.758C69.8158 66.758 69.16 67.4139 69.16 68.2228V97.0701H53.3035L57.9018 92.0115C58.4041 91.4588 58.641 90.6715 58.5354 89.9047C58.5334 89.8898 58.5311 89.875 58.5285 89.8602L54.149 63.9877L55.3289 62.2115C55.9813 62.6748 56.4838 63.1209 57.4262 63.1209C58.3848 63.1209 59.2811 62.5844 59.7221 61.7012V61.701L64.3412 52.4432L74.8639 56.5184C75.2445 56.6816 80.7725 59.1711 80.7725 65.7445V75.6527C80.7723 76.4615 81.4281 77.1176 82.2373 77.1176C83.0463 77.1176 83.7022 76.4617 83.7022 75.6527V65.7445C83.7022 57.0836 76.2863 53.9354 75.9707 53.8055C75.9615 53.8016 75.9522 53.7979 75.9428 53.7943L58.4295 47.0119V42.9045C61.2111 40.7412 63.1399 37.5344 63.624 33.8758C65.0109 33.7781 66.2979 33.2602 67.3488 32.3564C68.7213 31.1762 69.5088 29.4584 69.5088 27.6443C69.5088 26.1389 68.9656 24.7014 67.9977 23.5812V18.1549C67.9975 8.14434 59.8533 0 49.8428 0C39.8322 0 31.6881 8.14434 31.6881 18.1549V23.7234C30.7098 24.8322 30.1777 26.1971 30.1777 27.6441C30.1777 29.4588 30.9648 31.1764 32.3377 32.3568C33.3879 33.2602 34.674 33.7775 36.0606 33.8754C36.5486 37.6025 38.5336 40.9289 41.5522 43.1213V47.0119L24.0578 53.7941C24.0486 53.7977 24.0395 53.8014 24.0303 53.8051C23.7145 53.935 16.2988 57.0832 16.2988 65.7441V96.2607C16.2988 98.3223 17.976 99.9994 20.0375 99.9994H33.9939C34.8029 99.9994 35.4588 99.3436 35.4588 98.5346C35.4588 97.7256 34.8029 97.0697 33.9939 97.0697H30.8422V68.2228C30.8422 67.4139 30.1863 66.758 29.3773 66.758C28.5684 66.758 27.9125 67.4139 27.9125 68.2228V97.0701H20.0377C19.5918 97.0701 19.2289 96.7072 19.2289 96.2613V65.7443C19.2289 59.1488 24.7939 56.665 25.1357 56.5189L35.6502 52.4428L40.2697 61.701C40.7117 62.5863 41.6092 63.1209 42.5658 63.1209C43.5035 63.1209 44.0012 62.6816 44.6631 62.2115L45.843 63.9877L41.4639 89.8604C41.4613 89.875 41.4592 89.8896 41.457 89.9045C41.3512 90.6709 41.5881 91.4586 42.0906 92.0117L46.6889 97.0703H40.8305C40.0215 97.0703 39.3656 97.7262 39.3656 98.5352C39.3656 99.3441 40.0215 100 40.8305 100H79.9643C82.0258 100 83.7029 98.3227 83.7029 96.2613V82.4891C83.7026 81.6799 83.0467 81.024 82.2377 81.024ZM61.5973 51.3807L57.2908 60.0115C57.1838 59.9355 54.9016 58.3141 52.1117 56.333C53.3223 54.8387 51.9061 56.5867 57.4311 49.7672L61.5973 51.3807ZM52.9387 60.5143L51.8219 62.1953H48.1689L47.0522 60.5143L49.9955 58.4238L52.9387 60.5143ZM44.4816 47.4846V44.7432C46.2613 45.4605 48.1633 45.7932 50.0207 45.7932C51.9412 45.7932 53.8246 45.3838 55.4996 44.6514V47.4965L49.9955 54.2904L44.4816 47.4846ZM66.5789 27.6443C66.5787 28.6039 66.1631 29.5119 65.4385 30.1352C64.9594 30.5473 64.3807 30.8107 63.7469 30.9139V24.3754C65.4305 24.6488 66.5789 26.0453 66.5789 27.6443ZM35.9395 30.9139C34.2367 30.6375 33.1074 29.2297 33.1074 27.6441C33.1074 26.0781 34.4057 24.8035 35.9395 24.449V30.9139ZM36.0182 21.4641C35.5516 21.5176 35.0168 21.6439 34.6182 21.7795V18.1549C34.6182 9.75977 41.4479 2.92988 49.843 2.92988C58.2381 2.92988 65.0678 9.75977 65.0678 18.1549V21.6789C64.642 21.5494 64.2004 21.4639 63.7471 21.4236C63.7471 20.0102 63.7594 20.2828 59.1354 15.3115C58.285 14.3979 56.8783 14.2064 55.8078 14.9059C50.7043 18.2396 44.4787 19.9145 38.7346 19.502C37.4746 19.4076 36.327 20.2375 36.0182 21.4641ZM38.8693 32.0672V22.9281V22.4467C45.1926 22.817 51.8221 20.9385 57.1777 17.5086C59.2984 19.7855 60.4469 20.9799 60.8172 21.4342C60.8172 22.5834 60.8172 30.7516 60.8172 32.067C60.8172 38.0137 55.9684 42.8631 50.0209 42.8631C43.3424 42.8633 38.8693 37.6824 38.8693 32.0672ZM42.7004 60.0115L38.3939 51.3807L42.5527 49.7699L47.8732 56.3373C45.1676 58.2586 42.9459 59.8371 42.7004 60.0115ZM44.3811 90.1762L48.6211 65.1248H51.3693L55.6094 90.1762L49.9953 96.3525L44.3811 90.1762Z" fill="currentColor"/>
</svg>
