<svg width="17" height="15" viewBox="0 0 17 15" fill="none" xmlns="http://www.w3.org/2000/svg">
<path d="M15.5797 12.7193C15.943 12.7193 16.2376 13.0139 16.2376 13.3772C16.2376 13.7405 15.943 14.0351 15.5797 14.0351H1.54461C1.18127 14.0351 0.886719 13.7405 0.886719 13.3772C0.886719 13.0139 1.18127 12.7193 1.54461 12.7193H15.5797ZM8.54572 0.000209613C8.90895 -0.00887118 9.21077 0.278225 9.21985 0.641457L9.42255 8.77583L12.5371 6.28452C12.7972 6.07646 13.1668 6.09777 13.4014 6.32131L13.4619 6.38727C13.6888 6.67099 13.6428 7.085 13.3591 7.31198L8.97314 10.8208C8.73287 11.013 8.39145 11.013 8.15117 10.8208L3.76521 7.31198C3.48148 7.085 3.43548 6.67099 3.66246 6.38727C3.88944 6.10354 4.30345 6.05754 4.58718 6.28452L8.11505 9.10667L7.90447 0.674341C7.89614 0.341378 8.13669 0.06002 8.45662 0.00844459L8.54572 0.000209613Z" fill="currentColor"/>
</svg>
