<svg width="16" height="15" viewBox="0 0 16 15" fill="none" xmlns="http://www.w3.org/2000/svg">
<path d="M0.822227 4.5335C1.10596 4.5335 1.33586 4.29961 1.33586 4.0111V1.7837L4.644 5.14764C4.74433 5.24962 4.87576 5.3006 5.00718 5.3006C5.13867 5.3006 5.27016 5.24962 5.37042 5.14757C5.57101 4.94356 5.57101 4.61277 5.37035 4.40882L2.06207 1.04481H4.25255C4.53621 1.04481 4.76618 0.810912 4.76618 0.522405C4.76618 0.233898 4.53628 0 4.25255 0H0.822227C0.538496 0 0.308594 0.233898 0.308594 0.522405V4.01117C0.308594 4.29961 0.538496 4.5335 0.822227 4.5335Z" fill="currentColor"/>
<path d="M14.5427 10.4661C14.2589 10.4661 14.029 10.7 14.029 10.9885V13.216L10.619 9.74774C10.4184 9.54372 10.0932 9.54372 9.89263 9.74774C9.69204 9.95176 9.69204 10.2825 9.89263 10.4865L13.3025 13.9546H11.1126C10.8289 13.9546 10.599 14.1885 10.599 14.477C10.599 14.7655 10.8289 14.9994 11.1126 14.9994H14.5427C14.8265 14.9994 15.0564 14.7655 15.0564 14.477V10.9885C15.0563 10.7 14.8263 10.4661 14.5427 10.4661Z" fill="currentColor"/>
<path d="M4.7455 9.74775L1.33586 13.2159V10.9885C1.33586 10.7 1.10596 10.4661 0.822227 10.4661C0.538496 10.4661 0.308594 10.7 0.308594 10.9885V14.4772C0.308594 14.7657 0.538496 14.9996 0.822227 14.9996H4.2522C4.53587 14.9996 4.76584 14.7657 4.76584 14.4772C4.76584 14.1887 4.53594 13.9548 4.2522 13.9548H2.06221L5.47191 10.4865C5.6725 10.2825 5.6725 9.95169 5.47184 9.74768C5.27139 9.54373 4.94616 9.54373 4.7455 9.74775Z" fill="currentColor"/>
<path d="M14.5438 0H11.1137C10.83 0 10.6001 0.233898 10.6001 0.522405C10.6001 0.810912 10.83 1.04481 11.1137 1.04481H13.3038L9.99614 4.40917C9.79555 4.61319 9.79555 4.94397 9.99621 5.14799C10.0965 5.24996 10.228 5.30095 10.3594 5.30095C10.4908 5.30095 10.6223 5.24989 10.7226 5.14792L14.0303 1.78356V4.0111C14.0303 4.2996 14.2602 4.5335 14.5439 4.5335C14.8276 4.5335 15.0575 4.2996 15.0575 4.0111V0.522405C15.0575 0.233829 14.8275 0 14.5438 0Z" fill="currentColor"/>
</svg>
