<svg width="21" height="20" viewBox="0 0 21 20" fill="none" xmlns="http://www.w3.org/2000/svg">
<path d="M14.2828 2.5C12.8571 2.5 11.4888 3.175 10.5958 4.24167C9.70267 3.175 8.33437 2.5 6.90872 2.5C4.38515 2.5 2.40234 4.51667 2.40234 7.08333C2.40234 10.2333 5.1881 12.8 9.40771 16.7L10.5958 17.7917L11.7838 16.6917C16.0034 12.8 18.7892 10.2333 18.7892 7.08333C18.7892 4.51667 16.8064 2.5 14.2828 2.5ZM10.6777 15.4583L10.5958 15.5417L10.5138 15.4583C6.61376 11.8667 4.04103 9.49167 4.04103 7.08333C4.04103 5.41667 5.27004 4.16667 6.90872 4.16667C8.1705 4.16667 9.39951 4.99167 9.83376 6.13333H11.3659C11.792 4.99167 13.021 4.16667 14.2828 4.16667C15.9215 4.16667 17.1505 5.41667 17.1505 7.08333C17.1505 9.49167 14.5777 11.8667 10.6777 15.4583Z" fill="currentColor"/>
</svg>
