<svg width="23" height="24" viewBox="0 0 23 19" fill="none" xmlns="http://www.w3.org/2000/svg">
<path d="M19.1899 2.75879H3.9586C2.91145 2.75879 2.06421 3.61555 2.06421 4.6627L2.05469 14.1823C2.05469 15.2294 2.91145 16.0862 3.9586 16.0862H19.1899C20.237 16.0862 21.0938 15.2294 21.0938 14.1823V4.6627C21.0938 3.61555 20.237 2.75879 19.1899 2.75879ZM10.6223 5.61466H12.5262V7.51857H10.6223V5.61466ZM10.6223 8.47052H12.5262V10.3744H10.6223V8.47052ZM7.76642 5.61466H9.67033V7.51857H7.76642V5.61466ZM7.76642 8.47052H9.67033V10.3744H7.76642V8.47052ZM6.81447 10.3744H4.91056V8.47052H6.81447V10.3744ZM6.81447 7.51857H4.91056V5.61466H6.81447V7.51857ZM15.3821 14.1823H7.76642V12.2783H15.3821V14.1823ZM15.3821 10.3744H13.4782V8.47052H15.3821V10.3744ZM15.3821 7.51857H13.4782V5.61466H15.3821V7.51857ZM18.2379 10.3744H16.334V8.47052H18.2379V10.3744ZM18.2379 7.51857H16.334V5.61466H18.2379V7.51857Z" fill="currentColor"/>
</svg>
