<svg width="28" height="28" viewBox="0 0 28 28" fill="none" xmlns="http://www.w3.org/2000/svg">
<circle cx="14" cy="14" r="14" fill="black"/>
<path d="M14.0007 10.6667C14.9173 10.6667 15.6673 9.91671 15.6673 9.00004C15.6673 8.08337 14.9173 7.33337 14.0007 7.33337C13.084 7.33337 12.334 8.08337 12.334 9.00004C12.334 9.91671 13.084 10.6667 14.0007 10.6667ZM14.0007 12.3334C13.084 12.3334 12.334 13.0834 12.334 14C12.334 14.9167 13.084 15.6667 14.0007 15.6667C14.9173 15.6667 15.6673 14.9167 15.6673 14C15.6673 13.0834 14.9173 12.3334 14.0007 12.3334ZM14.0007 17.3334C13.084 17.3334 12.334 18.0834 12.334 19C12.334 19.9167 13.084 20.6667 14.0007 20.6667C14.9173 20.6667 15.6673 19.9167 15.6673 19C15.6673 18.0834 14.9173 17.3334 14.0007 17.3334Z" fill="white"/>
</svg>
