<svg width="44" height="44" viewBox="0 0 44 44" fill="none" xmlns="http://www.w3.org/2000/svg">
<circle cx="22" cy="22" r="22" fill="currentColor"/>
<g clip-path="url(#clip0)">
<path d="M31.7537 8.06417C31.6014 7.97726 31.4141 7.97873 31.2632 8.06798L22.3153 13.3592C22.0831 13.4965 22.0062 13.7959 22.1435 14.028C22.2807 14.2601 22.5801 14.337 22.8123 14.1998L29.2323 10.4034L17.274 22.8113L11.3263 20.9917L19.0883 16.4018C19.3204 16.2645 19.3973 15.9651 19.2601 15.733C19.1229 15.5009 18.8234 15.4239 18.5913 15.5612L9.87649 20.7145C9.70999 20.813 9.61726 21.0004 9.64016 21.1925C9.66306 21.3847 9.79719 21.5451 9.98215 21.6017L17.0851 23.7748L20.2188 29.4785C20.2221 29.4844 20.2254 29.4894 20.2289 29.4939C20.2812 29.5811 20.3596 29.6523 20.4573 29.6934C20.5185 29.7192 20.5828 29.7317 20.6467 29.7317C20.7718 29.7317 20.895 29.6836 20.988 29.5926L24.5912 26.0711L31.3689 28.1446C31.4158 28.159 31.4639 28.166 31.5117 28.166C31.615 28.166 31.7171 28.1332 31.8021 28.0703C31.9266 27.9782 32 27.8325 32 27.6777V8.4883C32 8.31295 31.906 8.15104 31.7537 8.06417ZM20.2454 24.0757C20.1888 24.1574 20.1585 24.2544 20.1585 24.3537V27.3406L18.0187 23.4458L27.4875 13.6211L20.2454 24.0757ZM21.1351 28.0835V25.0138L23.5272 25.7456L21.1351 28.0835ZM31.0235 27.0177L21.4288 24.0824L31.0235 10.2317V27.0177Z" fill="white"/>
<path d="M15.0285 24.9716C14.8378 24.7809 14.5287 24.7809 14.3379 24.9716L9.77972 29.5298C9.58905 29.7205 9.58905 30.0297 9.77972 30.2204C9.87513 30.3157 10.0001 30.3634 10.125 30.3634C10.25 30.3634 10.3749 30.3157 10.4703 30.2204L15.0285 25.6621C15.2192 25.4715 15.2192 25.1623 15.0285 24.9716Z" fill="white"/>
<path d="M8.95658 31.0433C8.76586 30.8527 8.45678 30.8527 8.26605 31.0434L7.14301 32.1664C6.95233 32.3571 6.95233 32.6663 7.14301 32.857C7.23837 32.9523 7.36332 33 7.48827 33C7.61322 33 7.73817 32.9523 7.83353 32.8569L8.95658 31.7339C9.14725 31.5432 9.14725 31.234 8.95658 31.0433Z" fill="white"/>
<path d="M13.9663 32.1377C13.8755 32.0469 13.7495 31.9946 13.6211 31.9946C13.4921 31.9946 13.3667 32.0469 13.2759 32.1377C13.1851 32.2285 13.1328 32.354 13.1328 32.4829C13.1328 32.6113 13.185 32.7373 13.2759 32.8281C13.3667 32.9189 13.4927 32.9712 13.6211 32.9712C13.7495 32.9712 13.8755 32.9189 13.9663 32.8281C14.0571 32.7373 14.1094 32.6113 14.1094 32.4829C14.1094 32.354 14.0571 32.2285 13.9663 32.1377Z" fill="white"/>
<path d="M17.5975 28.5043C17.4069 28.3137 17.0978 28.3137 16.907 28.5043L14.4926 30.9186C14.3019 31.1093 14.3019 31.4185 14.4926 31.6092C14.588 31.7045 14.7129 31.7522 14.8379 31.7522C14.9628 31.7522 15.0878 31.7045 15.1831 31.6092L17.5975 29.1949C17.7882 29.0042 17.7882 28.695 17.5975 28.5043Z" fill="white"/>
<path d="M25.9302 28.3192C25.7395 28.1286 25.4304 28.1286 25.2397 28.3192L22.8188 30.7401C22.6281 30.9308 22.6281 31.24 22.8188 31.4307C22.9141 31.526 23.0391 31.5737 23.1641 31.5737C23.289 31.5737 23.414 31.526 23.5093 31.4307L25.9302 29.0098C26.1209 28.8191 26.1209 28.51 25.9302 28.3192Z" fill="white"/>
<path d="M20.8433 14.6558C20.7524 14.5649 20.6265 14.5127 20.498 14.5127C20.3696 14.5127 20.2437 14.5649 20.1528 14.6558C20.0621 14.7466 20.0098 14.8726 20.0098 15.0015C20.0098 15.1299 20.062 15.2554 20.1528 15.3462C20.2437 15.4375 20.3696 15.4893 20.498 15.4893C20.6265 15.4893 20.7524 15.4375 20.8433 15.3462C20.934 15.2554 20.9863 15.1299 20.9863 15.0015C20.9863 14.8726 20.9341 14.7466 20.8433 14.6558Z" fill="white"/>
</g>
<defs>
<clipPath id="clip0">
<rect x="7" y="4" width="29" height="29" fill="white"/>
</clipPath>
</defs>
</svg>
