<?xml version="1.0" encoding="UTF-8"?>
<svg width="24px" height="24px" viewBox="0 0 24 24" version="1.1" xmlns="http://www.w3.org/2000/svg" xmlns:xlink="http://www.w3.org/1999/xlink">
    <!-- Generator: Sketch 64 (93537) - https://sketch.com -->
    <title>Icons / Actions / Delete</title>
    <desc>Created with Sketch.</desc>
    <g id="Icons-/-Actions-/-Delete" stroke="none" stroke-width="1" fill="none" fill-rule="evenodd">
        <path d="M13.6551724,3 C14.6114039,3 15.4838554,3.55688669 15.5778432,4.43542312 L15.5862069,4.59375 L15.5862069,5.8125 L19.1724138,5.8125 C19.629477,5.8125 20,6.19025974 20,6.65625 C20,7.08340774 19.6886578,7.43642733 19.2847123,7.49229756 L19.1724138,7.5 L18.8744828,7.5 L17.8217931,19.3125 L18.6206897,19.3125 C19.0777529,19.3125 19.4482759,19.6902597 19.4482759,20.15625 C19.4482759,20.5834077 19.1369336,20.9364273 18.7329882,20.9922976 L18.6206897,21 L5.37931034,21 C4.9222471,21 4.55172414,20.6222403 4.55172414,20.15625 C4.55172414,19.7290923 4.86306635,19.3760727 5.2670118,19.3202024 L5.37931034,19.3125 L6.17710345,19.3125 L5.12441379,7.5 L4.82758621,7.5 C4.37052297,7.5 4,7.12224026 4,6.65625 C4,6.22909226 4.31134221,5.87607267 4.71528766,5.82020244 L4.82758621,5.8125 L8.4137931,5.8125 L8.4137931,4.59375 C8.4137931,3.67818639 9.23312064,3.07043506 10.1770919,3.00573295 L10.3448276,3 L13.6551724,3 Z M17.2115862,7.5 L6.78731034,7.5 L7.84,19.3125 L16.1588966,19.3125 L17.2115862,7.5 Z M12,9.1875 C12.4189746,9.1875 12.7652314,9.50492312 12.8200313,9.91675812 L12.8275862,10.03125 L12.8275862,16.78125 C12.8275862,17.2472403 12.4570632,17.625 12,17.625 C11.5810254,17.625 11.2347686,17.3075769 11.1799687,16.8957419 L11.1724138,16.78125 L11.1724138,10.03125 C11.1724138,9.56525974 11.5429368,9.1875 12,9.1875 Z M14.7586207,9.1875 C15.1775953,9.1875 15.5238521,9.50492312 15.578652,9.91675812 L15.5862069,10.03125 L15.5862069,16.78125 C15.5862069,17.2472403 15.2156839,17.625 14.7586207,17.625 C14.3396461,17.625 13.9933893,17.3075769 13.9385894,16.8957419 L13.9310345,16.78125 L13.9310345,10.03125 C13.9310345,9.56525974 14.3015574,9.1875 14.7586207,9.1875 Z M9.24137931,9.1875 C9.66035395,9.1875 10.0066107,9.50492312 10.0614106,9.91675812 L10.0689655,10.03125 L10.0689655,16.78125 C10.0689655,17.2472403 9.69844255,17.625 9.24137931,17.625 C8.82240467,17.625 8.47614791,17.3075769 8.42134799,16.8957419 L8.4137931,16.78125 L8.4137931,10.03125 C8.4137931,9.56525974 8.78431607,9.1875 9.24137931,9.1875 Z M13.6551724,4.6875 L10.3448276,4.6875 C10.2410306,4.6875 10.1487023,4.70658288 10.0816921,4.73470252 L10.0689655,4.740375 L10.0689655,5.8125 L13.9310345,5.8125 L13.9310345,4.740375 L13.9183079,4.73470252 C13.8736344,4.71595609 13.8177085,4.701226 13.7546335,4.69348888 L13.6551724,4.6875 Z" id="Shape" fill="currentColor" fill-rule="nonzero"></path>
    </g>
</svg>
